<svg xmlns="http://www.w3.org/2000/svg" width="884.427" height="835.547" viewBox="0 0 884.427 835.547"><path d="M3953.57 1091.62c149.71 277.11 234.44 592 234.44 926.47 0 1113.2-937.43 2016.67-2093.75 2016.67-270.18 0-528.45-49.42-764.72-139.62 23.53-201.47 68.2-402.63 131.54-600.57 157.72 61.68 329.92 95.71 511.64 95.71 744.09 0 1347.44-575.34 1347.44-1283.92 0-272.12-88.63-524.29-239.52-732.11 269.5-131.38 567.57-226.11 872.93-282.63" style="fill:#fff;fill-opacity:1;fill-rule:nonzero;stroke:none" transform="matrix(.13333 0 0 -.13333 0 835.547)"/><path d="M1972.72 3390.28c-181.72 0-353.92-34.03-511.64-95.71 211.79-657.62 639.6-1272.42 1237.32-1695.84 117.89-84.06 246.5-158.39 382.24-224.48 150.89 207.82 239.52 459.99 239.52 732.11 0 708.58-603.35 1283.92-1347.44 1283.92" style="fill:#ee2722;fill-opacity:1;fill-rule:nonzero;stroke:none" transform="matrix(.13333 0 0 -.13333 0 835.547)"/><path d="M5063.08 2690.9c494.61 379.02 1743.36 1198.09 1549.94 1530.47-156.29 267.87-839.22-55.74-1610-474.95-605.56-330.23-474.74 68.54-90.05 650.79 339.29 512.47 849.25 1204.08 565.23 1391.31-331.14 217.69-1345.26-987.85-1582.55-1225.74-236.81-237.92-453.8-366.05-334.79 296.56 159.55 880.79 190.81 1341.21-7.3 1396.75-277.11 77.66-450.23-268.16-864.92-1235.9-297.38-694.54-556.86-817.63-588.78-194.57-41.46 1119.67-326.03 862.93-435.48 690.82-300.36-473.12-402.55-1046.28-334.84-1621.3 236.27 90.2 494.54 139.62 764.72 139.62 1156.32 0 2093.75-903.47 2093.75-2016.67 0-334.47-84.73-649.36-234.44-926.47 660.23-120.671 1355.65-62.68 1879.9 198.06 87.27 43.28 299.09 173.14 167.08 352.44-263.4 358.45-738.3 170.42-1246 317.62-445.56 129.13-48.4 458.09 308.53 731.16" style="fill:#ee2722;fill-opacity:1;fill-rule:nonzero;stroke:none" transform="matrix(.13333 0 0 -.13333 0 835.547)"/><path d="M3080.64 1374.25c-244.12-334.12-648.96-553.289-1107.92-553.289-744.37 0-1347.876 575.659-1347.876 1285.399 0 536.73 345.902 996.3 836.236 1188.21-63.34 197.94-108.01 399.1-131.54 600.57C550.98 3600.99 0 2872.15 0 2018.09 0 903.75 937.59 0 2094.26 0c809.47 0 1511.11 443.762 1859.31 1091.62-305.36 56.52-603.43 151.25-872.93 282.63" style="fill:#656263;fill-opacity:1;fill-rule:nonzero;stroke:none" transform="matrix(.13333 0 0 -.13333 0 835.547)"/></svg>