<svg width="512" height="512" viewBox="63 73 392 363" fill="none" xmlns="http://www.w3.org/2000/svg">
  <path d="M279.034 431.879C249.696 434.187 180.376 437.707 137.203 423.15H137.274C73.1809 404.216 51.7729 351.862 70.5476 263.542L100.197 129.766C102.913 117.326 107.434 115.054 112.675 111.617C123.629 104.459 227.956 59.7378 222.262 86.3929L181.115 273.888C179.876 279.562 179.161 284.83 178.78 289.779V289.875C169.541 361.875 192.329 405.548 248.883 422.771C249.646 422.961 250.432 423.223 251.338 423.483C253.649 424.126 255.934 424.672 258.363 425.243C263.671 426.482 270.365 427.861 278.03 428.954C282.415 429.571 283.273 431.522 279.034 431.879ZM338.235 111.615C333.234 114.863 328.994 117.026 326.328 127.577L293.892 273.886C292.655 279.561 291.942 284.828 291.607 289.777C289.323 322.649 305.136 339.8 336.518 339.8C369.286 339.8 390.359 322.053 402.005 290.478C402.054 290.358 402.054 290.229 402.1 290.134C403.577 285.139 405.008 280.047 406.243 274.791C406.292 274.495 406.385 274.185 406.433 273.888L447.774 86.3929C453.491 59.7378 349.138 104.459 338.235 111.615Z" fill="url(#paint0_linear_10366_83116)"/>
  <defs>
    <linearGradient id="paint0_linear_10366_83116" x1="442.559" y1="82.6638" x2="72.5631" y2="366.392" gradientUnits="userSpaceOnUse">
      <stop stop-color="#1588C2"/>
      <stop offset="0.407062" stop-color="#065A82"/>
      <stop offset="1" stop-color="#1B3D6B"/>
    </linearGradient>
  </defs>
</svg>