<svg xmlns="http://www.w3.org/2000/svg" width="512" height="512" fill="none" viewBox="1 1 800 800"><defs><mask id="a" width="800" height="800" x="1" y="1" maskUnits="userSpaceOnUse"><path fill="#fff" d="M1 1h800v800H1z"/><path fill="#000" d="M734.469 801c7.948-3.015 16.978-4.935 24.665-9.25 22.458-12.607 36.846-31.53 41.5-57.585C801 756.26 801 778.52 801 801zM1 734.469c3.015 7.948 4.955 16.963 9.247 24.668 12.552 22.54 31.572 36.79 57.588 41.497C45.74 801 23.48 801 1 801zM801 67.531c-3.015-7.948-4.955-16.963-9.247-24.668-12.552-22.54-31.572-36.79-57.588-41.497C756.26 1 778.52 1 801 1zM67.531 1c-7.948 3.015-16.955 4.965-24.67 9.245C20.28 22.77 6.067 41.815 1.366 67.835 1 45.74 1 23.48 1 1zm193.416 301.093c.97-22.809 11.16-39.75 31.578-48.61 19.703-8.55 39.234-6.302 56.247 7.7 10.465 8.614 14.858 20.675 16.081 33.838.534 5.747.09 11.583.09 17.806H290.08c-2.045 8.499 7.56 19.75 17.036 22.62 13.807 4.18 24.957-.508 33.038-14.747l23.567 6.953c-1.564 6.887-4.797 12.575-9.298 17.453-15.548 16.852-35.028 19.817-55.869 13.748-20.2-5.884-32.504-20.066-36.488-40.888-.96-5.02-.797-10.255-1.119-15.873m64.462-27.21c-17.17-6.785-34.309 1.892-35.089 17.919h46.555c-.727-7.846-4.078-13.747-11.466-17.918M441.71 289.15c1.398-7.826-1.664-13.14-8.598-15.619-13.21-4.723-25.13 1.562-28.725 15.852l-25.469-5.291c2.436-14.886 10.607-25.144 23.745-30.774 15.542-6.66 31.719-6.308 47.108.516 15.816 7.013 20.926 20.954 21.045 37.207.122 16.664.027 33.33.028 49.995v16.785h-25.508c-.377-3.237-.77-6.618-1.347-11.56-1.61 2.138-2.439 3.51-3.522 4.638-15.364 16.013-46.24 13.394-58.588-4.94-11.73-17.415-3.308-40.136 18.04-46.558 9.795-2.946 20.294-3.48 30.382-5.556 3.874-.797 7.49-2.844 11.41-4.695m-3.565 42.403c4.359-6.208 4.571-13.154 4.156-20.643-3.193.437-5.823.712-8.42 1.168-6.698 1.178-13.507 1.985-20.035 3.794-5.972 1.654-8.44 6.383-7.98 12.785.377 5.223 3.687 9.268 9.148 10.43 8.773 1.868 16.436-.357 23.13-7.534m167.45-5.795a6007 6007 0 0 1 11.348-2.507c.47 1.678.803 3.098 1.264 4.476 3.495 10.45 19.19 15.421 28.065 8.905 5.774-4.238 5.53-12.665-1.015-15.513-5.57-2.424-11.75-3.45-17.67-5.057-3.05-.827-6.2-1.346-9.168-2.392-11.734-4.135-20.419-11.344-22.492-24.302-2.214-13.833 2.964-24.635 14.09-32.992 15.735-11.819 50.714-10.455 62.075 10.779 2.006 3.748 3.375 7.837 5.302 12.396l-24.326 5.597c-.699-1.633-1.282-3.108-1.953-4.542-4.124-8.819-15.282-12.413-23.685-7.623-3.59 2.046-5.845 4.927-5.449 9.305.403 4.455 3.211 6.824 7.266 7.796 7.276 1.742 14.667 3.042 21.877 5.012 20.188 5.515 30.374 20.956 25.814 39.535-3.268 13.31-12.306 21.61-25.32 25.006-12.7 3.316-25.433 2.685-37.66-2.61-10.838-4.692-17.2-13.274-20.604-24.293-.376-1.219-.325-2.57-.511-4.205 4.28-.927 8.313-1.8 12.752-2.77M162.167 275v82.8h-37.829V203.344h37.829zm360.371 54v28.817h-28.74V202.53c8.8 0 17.552-.13 26.286.201.872.033 2.305 2.857 2.343 4.413.224 9.15.111 18.309.111 27.465zm52.984-38v66.983h-28.335V202.908h28.335zm-345.43-2.85c5.434-.006 10.38-.006 15.734-.006.283 15.416 1.339 30.512-2.184 45.42-3.258 13.786-13.745 20.033-26.147 22.146-13.168 2.244-26.717 2.256-40.83 3.297-.705-18.148-1.846-34.91 5.49-50.73 4.556-9.825 13.05-15.036 23.246-17.087 7.95-1.6 16.128-2.065 24.691-3.04"/></mask></defs><rect width="620" height="230" x="90" y="170" fill="#fff" rx="20"/><g mask="url(#a)"><path fill="#6913d8" d="M1 734c0-221.694 0-443.387.366-665.705 4.701-26.48 18.913-45.525 41.495-58.05C50.576 5.965 59.583 4.015 68 1c221.694 0 443.387 0 665.705.366 26.476 4.707 45.496 18.957 58.048 41.497 4.292 7.705 6.232 16.72 9.247 25.137 0 221.694 0 443.387-.366 665.705-4.654 26.514-19.042 45.438-41.5 58.045-7.687 4.315-16.717 6.235-25.134 9.25-221.694 0-443.387 0-665.705-.366-26.476-4.707-45.496-18.957-58.048-41.497C5.955 751.432 4.015 742.417 1 734m492.123-135.177c17.39-4.095 28.596-15.256 34.58-31.562 5.5-14.986 5.29-30.392.567-45.61-3.248-10.467-9.254-19.175-18.363-25.442-17.292-11.897-40.237-10.083-59.067 4.958v-5.196c0-16.16.107-32.32-.139-48.476-.03-1.984-1.853-5.575-3.011-5.644-8.234-.493-16.511-.263-24.936-.263-.11 1.908-.252 3.212-.252 4.516-.011 48.145-.01 96.29-.006 144.435 0 .998-.313 2.238.155 2.944.906 1.367 2.227 3.416 3.444 3.463 7.92.311 15.859.16 24.335.16v-11.761c5.52 7.01 11.425 11.923 19.089 12.948 7.481 1 15.165.494 23.604.53M260.915 302.575c.354 5.136.19 10.37 1.151 15.39 3.984 20.823 16.289 35.005 36.488 40.889 20.84 6.07 40.32 3.104 55.87-13.748 4.5-4.878 7.733-10.566 9.297-17.453l-23.567-6.953c-8.08 14.24-19.23 18.928-33.038 14.746-9.475-2.869-19.08-14.12-17.036-22.62h74.863c0-6.222.444-12.058-.09-17.805-1.223-13.163-5.616-25.224-16.08-33.838-17.014-14.002-36.545-16.25-56.248-7.7-20.418 8.86-30.609 25.801-31.61 49.092m36.292 220.287c-1.127 7.359-3.16 14.71-3.227 22.077-.326 36.426 30.822 61.754 66.634 54.625 27.355-5.446 44.353-27.175 44.226-56.536-.115-26.55-18.254-49.15-43.245-53.882-28.441-5.384-53.634 7.6-64.388 33.716m144.317-233.338c-3.733 1.477-7.35 3.524-11.223 4.321-10.088 2.077-20.587 2.61-30.382 5.556-21.348 6.422-29.77 29.143-18.04 46.559 12.348 18.333 43.224 20.952 58.588 4.94 1.083-1.129 1.912-2.5 3.522-4.64l1.347 11.56h25.508v-16.784c0-16.665.094-33.331-.028-49.995-.12-16.253-5.23-30.194-21.045-37.207-15.39-6.824-31.566-7.176-47.108-.516-13.138 5.63-21.309 15.888-23.745 30.774l25.469 5.291c3.595-14.29 15.515-20.575 28.725-15.852 6.934 2.48 9.996 7.793 8.412 15.993M187.818 585.668c14.807 16.739 41.833 17.72 57.812 11.046 18.033-7.532 29.371-25.717 29.373-47.059V478.19c0-9.329.169-18.663-.148-27.981-.061-1.803-1.95-5.018-3.119-5.076-8.728-.433-17.488-.235-26.576-.235v6.106c0 27.32.01 54.64-.008 81.96-.004 6.661.117 13.334-.212 19.982-.443 8.977-5.487 15.635-13.227 18.138-14.272 4.616-26.926-4.48-27.504-19.881-.193-5.12-.03-10.252-.03-15.836-9.314 1.645-17.994 3.113-26.631 4.799-.917.18-2.236 1.613-2.272 2.509-.62 15.451.953 30.333 12.542 42.993M605.19 325.855l-12.347 2.674c.186 1.635.135 2.986.511 4.205 3.404 11.019 9.766 19.601 20.604 24.294 12.227 5.294 24.96 5.925 37.66 2.61 13.014-3.398 22.052-11.697 25.32-25.007 4.56-18.579-5.626-34.02-25.814-39.535-7.21-1.97-14.601-3.27-21.877-5.012-4.055-.972-6.863-3.341-7.266-7.796-.396-4.378 1.86-7.259 5.45-9.305 8.402-4.79 19.56-1.196 23.684 7.623.67 1.434 1.254 2.91 1.953 4.542l24.326-5.597c-1.927-4.559-3.296-8.648-5.302-12.396-11.361-21.234-46.34-22.598-62.075-10.78-11.126 8.358-16.304 19.16-14.09 32.993 2.073 12.958 10.758 20.167 22.492 24.302 2.968 1.046 6.119 1.565 9.167 2.392 5.921 1.606 12.102 2.633 17.671 5.057 6.545 2.848 6.789 11.275 1.015 15.513-8.875 6.516-24.57 1.545-28.065-8.905-.46-1.378-.794-2.798-1.264-4.476-3.857.85-7.4 1.63-11.753 2.604m-9.588 187.93 6.888 10.236 23.123-5.311c-2.832-12.218-8.735-21.274-19.725-26.216-11.817-5.314-24.155-6.044-36.554-2.308-15.021 4.526-25.137 17.764-25.175 32.377-.041 15.651 9.49 26.815 26.902 31.313 6.435 1.662 12.995 2.854 19.397 4.622 6.286 1.735 9.124 5.52 8.576 10.544-.534 4.883-5 8.565-10.983 9.055-12.195 1-17.733-2.795-22.66-15.75l-23.983 5.251c1.727 11.177 6.876 20.033 16.126 25.537 15.892 9.456 32.984 10.303 49.762 2.842 12.788-5.686 19.476-16.595 19.423-30.657-.052-13.97-7.689-23.338-20.242-28.764-3.633-1.57-7.532-2.6-11.388-3.566-5.962-1.494-12.046-2.52-17.972-4.136-3.566-.972-6.743-3.47-6.122-7.428.485-3.09 2.057-6.926 4.435-8.627 6.31-4.514 13.164-3.573 20.172.987M162.167 274.5v-71.155h-37.829V357.8h37.829zm360.371 54v-93.89c0-9.157.113-18.316-.111-27.466-.038-1.556-1.47-4.38-2.343-4.413-8.734-.331-17.486-.201-26.287-.201v155.287h28.741zm52.984-38v-87.592h-28.335v155.075h28.335zm-345.916-2.344c-8.077.97-16.255 1.434-24.205 3.034-10.195 2.051-18.69 7.262-23.246 17.088-7.336 15.82-6.195 32.581-5.49 50.729 14.113-1.04 27.662-1.053 40.83-3.297 12.402-2.113 22.889-8.36 26.147-22.147 3.523-14.907 2.467-30.003 2.184-45.419-5.354 0-10.3 0-16.22.012m-53.444-69.707c.332 5.311.374 10.66 1.056 15.927 1.587 12.25 5.17 23.787 16.933 30.057 16.196 8.634 33.956 7.343 52.427 7.527-.575-13.668-.7-26.636-1.782-39.524-1.063-12.676-7.768-21.464-20.009-26.091-15.613-5.902-31.67-4.42-48.626-4.141z"/><path fill="#fee057" d="M492.7 598.883c-8.016-.096-15.7.41-23.181-.59-7.664-1.025-13.569-5.937-19.09-12.948v11.761c-8.475 0-16.414.151-24.334-.16-1.217-.047-2.538-2.096-3.444-3.463-.468-.706-.155-1.946-.155-2.944-.004-48.145-.005-96.29.006-144.435 0-1.304.142-2.608.252-4.516 8.425 0 16.702-.23 24.936.263 1.158.069 2.98 3.66 3.011 5.644.246 16.156.139 32.317.139 48.476v5.196c18.83-15.04 41.775-16.855 59.067-4.958 9.109 6.267 15.115 14.975 18.363 25.442 4.723 15.218 4.932 30.624-.567 45.61-5.984 16.306-17.19 27.467-35.002 31.622m-21.993-83.91c-7.953 1.9-13.923 6.469-17.219 13.914-4.465 10.086-4.567 20.523.09 30.489 4.263 9.12 11.811 14.295 22.103 14.591 15.08.434 25.14-9.425 26.998-26.186 2.355-21.245-11.45-35.84-31.972-32.808m-173.336 7.537c10.59-25.765 35.782-38.748 64.223-33.364 24.991 4.732 43.13 27.332 43.245 53.882.127 29.361-16.871 51.09-44.226 56.536-35.812 7.129-66.96-18.199-66.634-54.625.066-7.368 2.1-14.718 3.392-22.428m26.21 31.201c3.633 12.874 12.994 20.385 25.492 20.452 12.105.066 22.818-7.367 25.268-19.23 1.401-6.78 1.444-14.314.058-21.092-2.414-11.81-13.27-19.554-25.11-19.657-11.876-.103-22.707 7.903-25.322 20.013-1.298 6.012-.506 12.475-.386 19.514m-136.014 31.701c-11.34-12.405-12.912-27.287-12.292-42.738.036-.896 1.355-2.33 2.272-2.51 8.637-1.685 17.317-3.153 26.63-4.798 0 5.584-.162 10.716.03 15.836.579 15.402 13.233 24.497 27.505 19.881 7.74-2.503 12.784-9.16 13.227-18.138.329-6.648.208-13.32.212-19.982.019-27.32.008-54.64.008-81.96v-6.106c9.088 0 17.848-.198 26.576.235 1.17.058 3.058 3.273 3.119 5.076.317 9.318.148 18.652.148 27.981v71.465c-.002 21.342-11.34 39.527-29.373 47.059-15.98 6.674-43.005 5.693-58.062-11.301"/><path fill="#fedf57" d="M595.327 513.531c-6.733-4.305-13.587-5.246-19.897-.732-2.378 1.701-3.95 5.536-4.435 8.627-.62 3.959 2.556 6.456 6.122 7.428 5.926 1.616 12.01 2.642 17.972 4.136 3.856.966 7.755 1.996 11.388 3.566 12.553 5.426 20.19 14.794 20.242 28.764.053 14.062-6.635 24.971-19.423 30.657-16.778 7.461-33.87 6.614-49.762-2.842-9.25-5.504-14.4-14.36-16.126-25.537l23.983-5.252c4.927 12.956 10.465 16.75 22.66 15.751 5.984-.49 10.45-4.172 10.983-9.055.548-5.024-2.29-8.81-8.576-10.544-6.402-1.768-12.962-2.96-19.397-4.622-17.413-4.498-26.943-15.662-26.902-31.313.038-14.613 10.154-27.851 25.175-32.377 12.4-3.736 24.737-3.006 36.554 2.308 10.99 4.942 16.893 13.998 19.725 26.216l-23.123 5.31c-2.523-3.748-4.705-6.991-7.163-10.489"/><path fill="#fee057" d="M176.161 217.958v-15.754c16.956-.278 33.013-1.761 48.626 4.141 12.241 4.627 18.946 13.415 20.01 26.09 1.08 12.889 1.206 25.857 1.78 39.525-18.47-.184-36.23 1.107-52.426-7.527-11.762-6.27-15.346-17.807-16.933-30.057-.682-5.267-.724-10.616-1.057-16.418"/><path fill="#6a15d7" d="M471.115 514.905c20.116-2.964 33.92 11.63 31.565 32.876-1.857 16.76-11.919 26.62-26.998 26.186-10.292-.296-17.84-5.471-22.102-14.591-4.658-9.966-4.556-20.403-.09-30.49 3.295-7.444 9.265-12.013 17.625-13.98"/><path fill="#6c17d9" d="M325.762 275.02c7.035 4.035 10.386 9.936 11.113 17.782H290.32c.78-16.027 17.92-24.704 35.442-17.781"/><path fill="#6b15d7" d="M323.445 553.322c.017-6.649-.775-13.112.523-19.124 2.615-12.11 13.446-20.116 25.322-20.013 11.84.103 22.696 7.847 25.11 19.657 1.386 6.778 1.343 14.312-.058 21.092-2.45 11.863-13.163 19.296-25.268 19.23-12.498-.067-21.86-7.578-25.629-20.842"/><path fill="#6c18d9" d="M437.92 331.838c-6.469 6.892-14.132 9.117-22.905 7.25-5.46-1.163-8.771-5.208-9.148-10.431-.46-6.402 2.008-11.131 7.98-12.785 6.528-1.809 13.337-2.616 20.035-3.794 2.597-.456 5.227-.731 8.42-1.168.415 7.49.203 14.435-4.382 20.928"/></g></svg>