<svg width="512" height="512" viewBox="1 1 800 800" fill="none" xmlns="http://www.w3.org/2000/svg">
  <defs>
    <mask id="white-to-transparent" maskUnits="userSpaceOnUse" x="1" y="1" width="800" height="800">
      <rect x="1" y="1" width="800" height="800" fill="white"/>
      <path fill="black" d="
M734.468628,801.000000 
	C742.416687,797.985352 751.447388,796.064514 759.134155,791.749573 
	C781.591797,779.142944 795.980469,760.219299 800.633667,734.165039 
	C801.000000,756.260193 801.000000,778.520325 801.000000,801.000000 
	C778.979614,801.000000 756.958435,801.000000 734.468628,801.000000 
z"/>
      <path fill="black" d="
M1.000002,734.468628 
	C4.014667,742.416687 5.955284,751.431580 10.246673,759.137268 
	C22.799433,781.677246 41.818916,795.926697 67.834877,800.633667 
	C45.739822,801.000000 23.479647,801.000000 1.000000,801.000000 
	C1.000000,778.979614 1.000000,756.958435 1.000002,734.468628 
z"/>
      <path fill="black" d="
M801.000000,67.531342 
	C797.985291,59.583302 796.044678,50.568459 791.753357,42.862736 
	C779.200623,20.322569 760.180847,6.073418 734.165039,1.366307 
	C756.260193,1.000000 778.520325,1.000000 801.000000,1.000000 
	C801.000000,23.020409 801.000000,45.041546 801.000000,67.531342 
z"/>
      <path fill="black" d="
M67.531342,1.000000 
	C59.583282,4.014658 50.576488,5.965441 42.861172,10.244696 
	C20.278833,22.769863 6.067091,41.814533 1.366341,67.834885 
	C1.000000,45.739822 1.000000,23.479643 1.000000,1.000000 
	C23.020409,1.000000 45.041546,1.000000 67.531342,1.000000 
z"/>
      <path fill="black" d="
M260.947327,302.093140 
	C261.916138,279.284454 272.106537,262.342651 292.525208,253.482193 
	C312.228333,244.932190 331.759460,247.181030 348.772217,261.183350 
	C359.237488,269.796783 363.630463,281.857574 364.853394,295.021423 
	C365.387207,300.767517 364.943115,306.604462 364.943115,312.826904 
	C339.799805,312.826904 314.887146,312.826904 290.080444,312.826904 
	C288.035492,321.325806 297.640747,332.577057 307.115570,335.446320 
	C320.923340,339.627686 332.073212,334.939362 340.154358,320.700104 
	C347.759155,322.943756 355.497528,325.226807 363.720581,327.652832 
	C362.157288,334.539795 358.924255,340.227509 354.423096,345.106171 
	C338.874756,361.958466 319.394562,364.923370 298.554291,358.853577 
	C278.354523,352.970367 266.049713,338.788452 262.066162,317.965790 
	C261.105804,312.945740 261.268890,307.710785 260.947327,302.093140 
M325.408997,274.883545 
	C308.239105,268.098389 291.100189,276.774994 290.320465,292.801575 
	C305.754120,292.801575 321.179749,292.801575 336.874817,292.801575 
	C336.148499,284.956268 332.797058,279.055115 325.408997,274.883545 
z"/>
      <path fill="black" d="
M441.710571,289.150146 
	C443.108154,281.324005 440.046173,276.010071 433.112488,273.531281 
	C419.901733,268.808472 407.982025,275.093445 404.386841,289.383209 
	C396.080200,287.657318 387.729553,285.922302 378.918335,284.091583 
	C381.354462,269.206024 389.524719,258.948151 402.662842,253.318314 
	C418.205261,246.658203 434.381500,247.010101 449.770996,253.834305 
	C465.586639,260.847443 470.696777,274.788239 470.816132,291.040649 
	C470.938477,307.705048 470.843475,324.371094 470.843597,341.036407 
	C470.843658,346.511169 470.843628,351.985962 470.843628,357.820923 
	C463.161194,357.820923 454.571808,357.820923 445.336060,357.820923 
	C444.958954,354.583771 444.565125,351.203064 443.989319,346.260284 
	C442.379425,348.399414 441.550140,349.770996 440.467407,350.899353 
	C425.102600,366.911591 394.226959,364.292938 381.878723,345.959686 
	C370.148743,328.544281 378.571472,305.823090 399.919037,299.401337 
	C409.713623,296.454926 420.213409,295.921783 430.301025,293.845428 
	C434.174500,293.048157 437.790771,291.001434 441.710571,289.150146 
M438.145691,331.552948 
	C442.504974,325.344757 442.717468,318.399323 442.302124,310.910156 
	C439.108612,311.346924 436.479370,311.621735 433.882050,312.078278 
	C427.183807,313.255676 420.375031,314.063354 413.846649,315.871643 
	C407.875214,317.525635 405.406372,322.254639 405.867493,328.656799 
	C406.243683,333.879700 409.554382,337.925262 415.014771,339.087708 
	C423.788361,340.955475 431.451447,338.730347 438.145691,331.552948 
z"/>
      <path fill="black" d="
M605.595459,325.758118 
	C609.543762,324.880646 613.086182,324.100372 616.942932,323.250854 
	C617.413025,324.928955 617.746399,326.349274 618.207153,327.727020 
	C621.701782,338.176666 637.396545,343.148193 646.272278,336.632233 
	C652.045593,332.393829 651.802185,323.966980 645.257263,321.118866 
	C639.687622,318.695190 633.507019,317.668152 627.586243,316.061707 
	C624.537659,315.234589 621.387024,314.716309 618.419250,313.670410 
	C606.685120,309.535004 598.000000,302.326141 595.926636,289.367737 
	C593.713379,275.534943 598.890503,264.732666 610.016785,256.375916 
	C625.752319,244.557266 660.730896,245.920563 672.092346,267.154602 
	C674.097961,270.903137 675.466675,274.992493 677.394348,279.550690 
	C668.804749,281.527008 661.087463,283.302612 653.068298,285.147644 
	C652.369080,283.515137 651.785706,282.040009 651.114929,280.605682 
	C646.991455,271.787170 635.832764,268.193054 627.430237,272.982727 
	C623.840332,275.029022 621.584900,277.910400 621.980957,282.287781 
	C622.383972,286.742676 625.192139,289.112488 629.246765,290.083557 
	C636.522583,291.826111 643.913757,293.125885 651.124146,295.095703 
	C671.311768,300.610840 681.498474,316.052490 676.937561,334.630768 
	C673.669800,347.941254 664.631836,356.240143 651.618835,359.637482 
	C638.917786,362.953400 626.185181,362.322296 613.957886,357.027710 
	C603.120483,352.334991 596.758301,343.752899 593.354492,332.734283 
	C592.977905,331.515137 593.029358,330.163727 592.842896,328.528870 
	C597.123108,327.602051 601.156372,326.728699 605.595459,325.758118 
z"/>
      <path fill="black" d="
M162.166901,275.000061 
	C162.166901,302.810944 162.166901,330.121796 162.166901,357.799286 
	C149.486694,357.799286 137.083054,357.799286 124.338409,357.799286 
	C124.338409,306.502655 124.338409,255.096573 124.338409,203.345154 
	C136.632980,203.345154 149.033386,203.345154 162.166901,203.345154 
	C162.166901,227.009689 162.166901,250.754868 162.166901,275.000061 
z"/>
      <path fill="black" d="
M522.538330,329.000305 
	C522.538269,338.815094 522.538269,348.129883 522.538269,357.816956 
	C512.906433,357.816956 503.522186,357.816956 493.797424,357.816956 
	C493.797424,306.305237 493.797424,254.800690 493.797424,202.529953 
	C502.598328,202.529953 511.350006,202.399933 520.084167,202.731384 
	C520.956116,202.764496 522.388672,205.587570 522.426758,207.143539 
	C522.650513,216.294144 522.538208,225.452988 522.538269,234.609055 
	C522.538452,265.906128 522.538330,297.203217 522.538330,329.000305 
z"/>
      <path fill="black" d="
M575.522400,291.000366 
	C575.522339,313.597656 575.522339,335.694946 575.522339,357.983459 
	C565.788879,357.983459 556.672119,357.983459 547.187012,357.983459 
	C547.187012,306.372101 547.187012,254.855408 547.187012,202.907684 
	C556.307800,202.907684 565.508911,202.907684 575.522461,202.907684 
	C575.522461,232.056686 575.522461,261.278534 575.522400,291.000366 
z"/>
      <path fill="black" d="
M230.092407,288.150024 
	C235.525711,288.144012 240.472458,288.144012 245.825668,288.144012 
	C246.109268,303.560059 247.164612,318.655670 243.641800,333.563477 
	C240.383865,347.350311 229.897186,353.597137 217.495377,355.710144 
	C204.326660,357.953888 190.777817,357.966400 176.665863,359.007019 
	C175.959549,340.859375 174.819061,324.097412 182.154800,308.277924 
	C186.711029,298.452423 195.205902,293.241150 205.401459,291.189545 
	C213.351181,289.589874 221.529266,289.125153 230.092407,288.150024 
z"/>
    </mask>
  </defs>
  <g mask="url(#white-to-transparent)">
    <path fill="#6913D8" opacity="1.000000" stroke="none" 
	d="
M1.000002,734.000000 
	C1.000000,512.306458 1.000000,290.612946 1.366341,68.294586 
	C6.067091,41.814533 20.278833,22.769863 42.861172,10.244696 
	C50.576488,5.965441 59.583282,4.014658 68.000000,1.000000 
	C289.693512,1.000000 511.387054,1.000000 733.705322,1.366307 
	C760.180847,6.073418 779.200623,20.322569 791.753357,42.862736 
	C796.044678,50.568459 797.985291,59.583302 801.000000,68.000000 
	C801.000000,289.693512 801.000000,511.387054 800.633667,733.705322 
	C795.980469,760.219299 781.591797,779.142944 759.134155,791.749573 
	C751.447388,796.064514 742.416687,797.985352 734.000000,801.000000 
	C512.306458,801.000000 290.612946,801.000000 68.294586,800.633667 
	C41.818916,795.926697 22.799433,781.677246 10.246673,759.137268 
	C5.955284,751.431580 4.014667,742.416687 1.000002,734.000000 
M493.123322,598.823303 
	C510.512878,594.727905 521.718750,583.566895 527.702698,567.261230 
	C533.202209,552.275330 532.992554,536.868774 528.270264,521.651306 
	C525.021973,511.183807 519.015625,502.476105 509.907288,496.209290 
	C492.615021,484.311676 469.669830,486.126434 450.839783,501.167053 
	C450.839783,499.128326 450.839813,497.549713 450.839783,495.971100 
	C450.839691,479.811737 450.947144,463.650757 450.701111,447.495148 
	C450.670898,445.511414 448.848022,441.919922 447.689758,441.850616 
	C439.455994,441.357880 431.178986,441.588135 422.754120,441.588135 
	C422.643616,443.495667 422.502319,444.799835 422.502014,446.104034 
	C422.490784,494.248932 422.492188,542.393799 422.496094,590.538696 
	C422.496155,591.537354 422.182587,592.777344 422.650818,593.483276 
	C423.557098,594.849792 424.878296,596.898865 426.094910,596.946472 
	C434.015381,597.257019 441.953949,597.106018 450.429596,597.106018 
	C450.429596,593.154236 450.429596,589.807495 450.429596,585.344727 
	C455.950043,592.355530 461.854828,597.268250 469.518677,598.293152 
	C477.000427,599.293701 484.683746,598.787354 493.123322,598.823303 
M260.915344,302.574646 
	C261.268890,307.710785 261.105804,312.945740 262.066162,317.965790 
	C266.049713,338.788452 278.354523,352.970367 298.554291,358.853577 
	C319.394562,364.923370 338.874756,361.958466 354.423096,345.106171 
	C358.924255,340.227509 362.157288,334.539795 363.720581,327.652832 
	C355.497528,325.226807 347.759155,322.943756 340.154358,320.700104 
	C332.073212,334.939362 320.923340,339.627686 307.115570,335.446320 
	C297.640747,332.577057 288.035492,321.325806 290.080444,312.826904 
	C314.887146,312.826904 339.799805,312.826904 364.943115,312.826904 
	C364.943115,306.604462 365.387207,300.767517 364.853394,295.021423 
	C363.630463,281.857574 359.237488,269.796783 348.772217,261.183350 
	C331.759460,247.181030 312.228333,244.932190 292.525208,253.482193 
	C272.106537,262.342651 261.916138,279.284454 260.915344,302.574646 
M297.207153,522.861938 
	C296.080353,530.220642 294.046204,537.571228 293.980164,544.939453 
	C293.653839,581.364990 324.802124,606.692993 360.613617,599.563599 
	C387.968781,594.117676 404.966675,572.388977 404.839905,543.028137 
	C404.725281,516.478455 386.586090,493.877594 361.594971,489.146271 
	C333.153900,483.761871 307.961121,496.745361 297.207153,522.861938 
M441.524231,289.524017 
	C437.790771,291.001434 434.174500,293.048157 430.301025,293.845428 
	C420.213409,295.921783 409.713623,296.454926 399.919037,299.401337 
	C378.571472,305.823090 370.148743,328.544281 381.878723,345.959686 
	C394.226959,364.292938 425.102600,366.911591 440.467407,350.899353 
	C441.550140,349.770996 442.379425,348.399414 443.989319,346.260284 
	C444.565125,351.203064 444.958954,354.583771 445.336060,357.820923 
	C454.571808,357.820923 463.161194,357.820923 470.843628,357.820923 
	C470.843628,351.985962 470.843658,346.511169 470.843597,341.036407 
	C470.843475,324.371094 470.938477,307.705048 470.816132,291.040649 
	C470.696777,274.788239 465.586639,260.847443 449.770996,253.834305 
	C434.381500,247.010101 418.205261,246.658203 402.662842,253.318314 
	C389.524719,258.948151 381.354462,269.206024 378.918335,284.091583 
	C387.729553,285.922302 396.080200,287.657318 404.386841,289.383209 
	C407.982025,275.093445 419.901733,268.808472 433.112488,273.531281 
	C440.046173,276.010071 443.108154,281.324005 441.524231,289.524017 
M187.817749,585.668213 
	C202.624649,602.406982 229.650940,603.388245 245.630188,596.713867 
	C263.663055,589.181641 275.001160,570.997437 275.002594,549.655090 
	C275.004181,525.833496 275.002991,502.011841 275.002899,478.190216 
	C275.002838,468.861481 275.171967,459.526947 274.855011,450.208984 
	C274.793671,448.405548 272.905853,445.191315 271.736298,445.133331 
	C263.007751,444.700348 254.247955,444.898071 245.160049,444.898071 
	C245.160049,447.392365 245.160065,449.198090 245.160065,451.003815 
	C245.160065,478.323700 245.170609,505.643616 245.152451,532.963501 
	C245.148026,539.625183 245.268784,546.297729 244.940308,552.945862 
	C244.496750,561.923401 239.452759,568.581299 231.712967,571.084290 
	C217.440704,575.699829 204.786865,566.604553 204.208649,551.202942 
	C204.016449,546.083374 204.178299,540.950500 204.178299,535.367188 
	C194.864670,537.012024 186.185028,538.479736 177.548035,540.165894 
	C176.630539,540.345093 175.312439,541.778809 175.276474,542.674622 
	C174.656326,558.126282 176.228867,573.007568 187.817749,585.668213 
M605.189636,325.855347 
	C601.156372,326.728699 597.123108,327.602051 592.842896,328.528870 
	C593.029358,330.163727 592.977905,331.515137 593.354492,332.734283 
	C596.758301,343.752899 603.120483,352.334991 613.957886,357.027710 
	C626.185181,362.322296 638.917786,362.953400 651.618835,359.637482 
	C664.631836,356.240143 673.669800,347.941254 676.937561,334.630768 
	C681.498474,316.052490 671.311768,300.610840 651.124146,295.095703 
	C643.913757,293.125885 636.522583,291.826111 629.246765,290.083557 
	C625.192139,289.112488 622.383972,286.742676 621.980957,282.287781 
	C621.584900,277.910400 623.840332,275.029022 627.430237,272.982727 
	C635.832764,268.193054 646.991455,271.787170 651.114929,280.605682 
	C651.785706,282.040009 652.369080,283.515137 653.068298,285.147644 
	C661.087463,283.302612 668.804749,281.527008 677.394348,279.550690 
	C675.466675,274.992493 674.097961,270.903137 672.092346,267.154602 
	C660.730896,245.920563 625.752319,244.557266 610.016785,256.375916 
	C598.890503,264.732666 593.713379,275.534943 595.926636,289.367737 
	C598.000000,302.326141 606.685120,309.535004 618.419250,313.670410 
	C621.387024,314.716309 624.537659,315.234589 627.586243,316.061707 
	C633.507019,317.668152 639.687622,318.695190 645.257263,321.118866 
	C651.802185,323.966980 652.045593,332.393829 646.272278,336.632233 
	C637.396545,343.148193 621.701782,338.176666 618.207153,327.727020 
	C617.746399,326.349274 617.413025,324.928955 616.942932,323.250854 
	C613.086182,324.100372 609.543762,324.880646 605.189636,325.855347 
M595.601868,513.785889 
	C597.784546,517.028809 599.967224,520.271790 602.490356,524.020508 
	C609.647522,522.376709 617.461365,520.582092 625.612610,518.709961 
	C622.780884,506.492371 616.877747,497.436005 605.888489,492.494110 
	C594.071472,487.180054 581.733093,486.450165 569.333557,490.185944 
	C554.312683,494.711548 544.196594,507.949829 544.158508,522.562683 
	C544.117676,538.213989 553.648438,549.378357 571.061035,553.876221 
	C577.495728,555.538391 584.055542,556.730164 590.458496,558.497742 
	C596.743774,560.232727 599.582092,564.018188 599.033508,569.042419 
	C598.500427,573.924622 594.034546,577.606812 588.051392,578.097229 
	C575.855652,579.096802 570.317688,575.302429 565.390747,562.346191 
	C557.558899,564.061218 549.680969,565.786316 541.407654,567.597961 
	C543.134521,578.775085 548.283752,587.631348 557.533997,593.135071 
	C573.426453,602.590698 590.517822,603.437988 607.296204,595.977112 
	C620.083679,590.290955 626.771851,579.381531 626.719299,565.320007 
	C626.667053,551.349915 619.029968,541.982361 606.477112,536.556152 
	C602.843811,534.985535 598.944702,533.956238 595.089417,532.990112 
	C589.127014,531.495972 583.042908,530.469788 577.116943,528.854431 
	C573.551392,527.882446 570.374329,525.384644 570.994995,521.425842 
	C571.479553,518.335327 573.051636,514.500305 575.430054,512.798889 
	C581.739685,508.285431 588.594360,509.225708 595.601868,513.785889 
M162.166901,274.500061 
	C162.166901,250.754868 162.166901,227.009689 162.166901,203.345154 
	C149.033386,203.345154 136.632980,203.345154 124.338409,203.345154 
	C124.338409,255.096573 124.338409,306.502655 124.338409,357.799286 
	C137.083054,357.799286 149.486694,357.799286 162.166901,357.799286 
	C162.166901,330.121796 162.166901,302.810944 162.166901,274.500061 
M522.538330,328.500305 
	C522.538330,297.203217 522.538452,265.906128 522.538269,234.609055 
	C522.538208,225.452988 522.650513,216.294144 522.426758,207.143539 
	C522.388672,205.587570 520.956116,202.764496 520.084167,202.731384 
	C511.350006,202.399933 502.598328,202.529953 493.797424,202.529953 
	C493.797424,254.800690 493.797424,306.305237 493.797424,357.816956 
	C503.522186,357.816956 512.906433,357.816956 522.538269,357.816956 
	C522.538269,348.129883 522.538269,338.815094 522.538330,328.500305 
M575.522461,290.500366 
	C575.522461,261.278534 575.522461,232.056686 575.522461,202.907684 
	C565.508911,202.907684 556.307800,202.907684 547.187012,202.907684 
	C547.187012,254.855408 547.187012,306.372101 547.187012,357.983459 
	C556.672119,357.983459 565.788879,357.983459 575.522339,357.983459 
	C575.522339,335.694946 575.522339,313.597656 575.522461,290.500366 
M229.605865,288.156036 
	C221.529266,289.125153 213.351181,289.589874 205.401459,291.189545 
	C195.205902,293.241150 186.711029,298.452423 182.154800,308.277924 
	C174.819061,324.097412 175.959549,340.859375 176.665863,359.007019 
	C190.777817,357.966400 204.326660,357.953888 217.495377,355.710144 
	C229.897186,353.597137 240.383865,347.350311 243.641800,333.563477 
	C247.164612,318.655670 246.109268,303.560059 245.825668,288.144012 
	C240.472458,288.144012 235.525711,288.144012 229.605865,288.156036 
M176.161514,218.448608 
	C176.494125,223.760162 176.535690,229.109406 177.217911,234.375671 
	C178.804901,246.626190 182.388824,258.163239 194.150726,264.433289 
	C210.347046,273.067230 228.107162,271.775879 246.577530,271.959747 
	C246.002716,258.292023 245.877548,245.323822 244.796112,232.435883 
	C243.732529,219.760452 237.028122,210.972366 224.787033,206.345032 
	C209.173584,200.442902 193.116501,201.925873 176.161499,202.203766 
	C176.161499,207.559235 176.161499,212.513397 176.161514,218.448608 
z"/>
    <path fill="#FEE057" opacity="1.000000" stroke="none" 
	d="
M492.700928,598.882935 
	C484.683746,598.787354 477.000427,599.293701 469.518677,598.293152 
	C461.854828,597.268250 455.950043,592.355530 450.429596,585.344727 
	C450.429596,589.807495 450.429596,593.154236 450.429596,597.106018 
	C441.953949,597.106018 434.015381,597.257019 426.094910,596.946472 
	C424.878296,596.898865 423.557098,594.849792 422.650818,593.483276 
	C422.182587,592.777344 422.496155,591.537354 422.496094,590.538696 
	C422.492188,542.393799 422.490784,494.248932 422.502014,446.104034 
	C422.502319,444.799835 422.643616,443.495667 422.754120,441.588135 
	C431.178986,441.588135 439.455994,441.357880 447.689758,441.850616 
	C448.848022,441.919922 450.670898,445.511414 450.701111,447.495148 
	C450.947144,463.650757 450.839691,479.811737 450.839783,495.971100 
	C450.839813,497.549713 450.839783,499.128326 450.839783,501.167053 
	C469.669830,486.126434 492.615021,484.311676 509.907288,496.209290 
	C519.015625,502.476105 525.021973,511.183807 528.270264,521.651306 
	C532.992554,536.868774 533.202209,552.275330 527.702698,567.261230 
	C521.718750,583.566895 510.512878,594.727905 492.700928,598.882935 
M470.707825,514.972656 
	C462.754913,516.872864 456.785492,521.441772 453.489319,528.886780 
	C449.023743,538.972839 448.922455,549.409729 453.579895,559.375977 
	C457.841766,568.495667 465.390320,573.671326 475.681824,573.967468 
	C490.761353,574.401367 500.822571,564.541748 502.680328,547.780518 
	C505.035034,526.535767 491.230530,511.940979 470.707825,514.972656 
z"/>
    <path fill="#FEE057" opacity="1.000000" stroke="none" 
	d="
M297.372253,522.510681 
	C307.961121,496.745361 333.153900,483.761871 361.594971,489.146271 
	C386.586090,493.877594 404.725281,516.478455 404.839905,543.028137 
	C404.966675,572.388977 387.968781,594.117676 360.613617,599.563599 
	C324.802124,606.692993 293.653839,581.364990 293.980164,544.939453 
	C294.046204,537.571228 296.080353,530.220642 297.372253,522.510681 
M323.581696,553.712280 
	C327.214600,566.585876 336.576477,574.096863 349.073608,574.164307 
	C361.178589,574.229675 371.891541,566.796814 374.342316,554.933777 
	C375.743011,548.153687 375.786255,540.619690 374.400482,533.842285 
	C371.985687,522.031982 361.130188,514.287781 349.289795,514.184814 
	C337.413879,514.081543 326.582672,522.088013 323.967804,534.197693 
	C322.669617,540.209778 323.462341,546.673340 323.581696,553.712280 
z"/>
    <path fill="#FEE057" opacity="1.000000" stroke="none" 
	d="
M187.568481,585.412659 
	C176.228867,573.007568 174.656326,558.126282 175.276474,542.674622 
	C175.312439,541.778809 176.630539,540.345093 177.548035,540.165894 
	C186.185028,538.479736 194.864670,537.012024 204.178299,535.367188 
	C204.178299,540.950500 204.016449,546.083374 204.208649,551.202942 
	C204.786865,566.604553 217.440704,575.699829 231.712967,571.084290 
	C239.452759,568.581299 244.496750,561.923401 244.940308,552.945862 
	C245.268784,546.297729 245.148026,539.625183 245.152451,532.963501 
	C245.170609,505.643616 245.160065,478.323700 245.160065,451.003815 
	C245.160065,449.198090 245.160049,447.392365 245.160049,444.898071 
	C254.247955,444.898071 263.007751,444.700348 271.736298,445.133331 
	C272.905853,445.191315 274.793671,448.405548 274.855011,450.208984 
	C275.171967,459.526947 275.002838,468.861481 275.002899,478.190216 
	C275.002991,502.011841 275.004181,525.833496 275.002594,549.655090 
	C275.001160,570.997437 263.663055,589.181641 245.630188,596.713867 
	C229.650940,603.388245 202.624649,602.406982 187.568481,585.412659 
z"/>
    <path fill="#FEDF57" opacity="1.000000" stroke="none" 
	d="
M595.326538,513.531372 
	C588.594360,509.225708 581.739685,508.285431 575.430054,512.798889 
	C573.051636,514.500305 571.479553,518.335327 570.994995,521.425842 
	C570.374329,525.384644 573.551392,527.882446 577.116943,528.854431 
	C583.042908,530.469788 589.127014,531.495972 595.089417,532.990112 
	C598.944702,533.956238 602.843811,534.985535 606.477112,536.556152 
	C619.029968,541.982361 626.667053,551.349915 626.719299,565.320007 
	C626.771851,579.381531 620.083679,590.290955 607.296204,595.977112 
	C590.517822,603.437988 573.426453,602.590698 557.533997,593.135071 
	C548.283752,587.631348 543.134521,578.775085 541.407654,567.597961 
	C549.680969,565.786316 557.558899,564.061218 565.390747,562.346191 
	C570.317688,575.302429 575.855652,579.096802 588.051392,578.097229 
	C594.034546,577.606812 598.500427,573.924622 599.033508,569.042419 
	C599.582092,564.018188 596.743774,560.232727 590.458496,558.497742 
	C584.055542,556.730164 577.495728,555.538391 571.061035,553.876221 
	C553.648438,549.378357 544.117676,538.213989 544.158508,522.562683 
	C544.196594,507.949829 554.312683,494.711548 569.333557,490.185944 
	C581.733093,486.450165 594.071472,487.180054 605.888489,492.494110 
	C616.877747,497.436005 622.780884,506.492371 625.612610,518.709961 
	C617.461365,520.582092 609.647522,522.376709 602.490356,524.020508 
	C599.967224,520.271790 597.784546,517.028809 595.326538,513.531372 
z"/>
    <path fill="#FEE057" opacity="1.000000" stroke="none" 
	d="
M176.161499,217.958084 
	C176.161499,212.513397 176.161499,207.559235 176.161499,202.203766 
	C193.116501,201.925873 209.173584,200.442902 224.787033,206.345032 
	C237.028122,210.972366 243.732529,219.760452 244.796112,232.435883 
	C245.877548,245.323822 246.002716,258.292023 246.577530,271.959747 
	C228.107162,271.775879 210.347046,273.067230 194.150726,264.433289 
	C182.388824,258.163239 178.804901,246.626190 177.217911,234.375671 
	C176.535690,229.109406 176.494125,223.760162 176.161499,217.958084 
z"/>
    <path fill="#6A15D7" opacity="1.000000" stroke="none" 
	d="
M471.114624,514.905273 
	C491.230530,511.940979 505.035034,526.535767 502.680328,547.780518 
	C500.822571,564.541748 490.761353,574.401367 475.681824,573.967468 
	C465.390320,573.671326 457.841766,568.495667 453.579895,559.375977 
	C448.922455,549.409729 449.023743,538.972839 453.489319,528.886780 
	C456.785492,521.441772 462.754913,516.872864 471.114624,514.905273 
z"/>
    <path fill="#6C17D9" opacity="1.000000" stroke="none" 
	d="
M325.761505,275.020752 
	C332.797058,279.055115 336.148499,284.956268 336.874817,292.801575 
	C321.179749,292.801575 305.754120,292.801575 290.320465,292.801575 
	C291.100189,276.774994 308.239105,268.098389 325.761505,275.020752 
z"/>
    <path fill="#6B15D7" opacity="1.000000" stroke="none" 
	d="
M323.445435,553.322449 
	C323.462341,546.673340 322.669617,540.209778 323.967804,534.197693 
	C326.582672,522.088013 337.413879,514.081543 349.289795,514.184814 
	C361.130188,514.287781 371.985687,522.031982 374.400482,533.842285 
	C375.786255,540.619690 375.743011,548.153687 374.342316,554.933777 
	C371.891541,566.796814 361.178589,574.229675 349.073608,574.164307 
	C336.576477,574.096863 327.214600,566.585876 323.445435,553.322449 
z"/>
    <path fill="#6C18D9" opacity="1.000000" stroke="none" 
	d="
M437.920349,331.837585 
	C431.451447,338.730347 423.788361,340.955475 415.014771,339.087708 
	C409.554382,337.925262 406.243683,333.879700 405.867493,328.656799 
	C405.406372,322.254639 407.875214,317.525635 413.846649,315.871643 
	C420.375031,314.063354 427.183807,313.255676 433.882050,312.078278 
	C436.479370,311.621735 439.108612,311.346924 442.302124,310.910156 
	C442.717468,318.399323 442.504974,325.344757 437.920349,331.837585 
z"/>
  </g>
</svg>
